<svg width="417" height="417" viewBox="0 0 417 417" fill="none" xmlns="http://www.w3.org/2000/svg">
<path d="M229.933 362.304L292.725 221.024C294.632 216.695 295.55 212.099 295.478 207.514H240.023C240.154 215.864 237.026 224.256 230.641 230.641C218.125 243.157 197.902 243.157 185.386 230.641C179 224.256 175.873 215.864 176.003 207.514H120.548C120.476 212.099 121.394 216.695 123.302 221.024L186.093 362.304C194.507 381.326 221.519 381.326 229.933 362.304Z" fill="#FF0000"/>
<path d="M186.093 53.723L123.302 195.003C121.533 199.018 120.615 203.261 120.548 207.514H176.003C176.128 199.496 179.255 191.517 185.386 185.386C197.902 172.87 218.125 172.87 230.641 185.386C236.771 191.517 239.899 199.496 240.023 207.514H295.478C295.412 203.261 294.494 199.018 292.725 195.003L229.933 53.723C221.519 34.7018 194.507 34.7018 186.093 53.723Z" fill="#0080FF"/>
<path fill-rule="evenodd" clip-rule="evenodd" d="M355.091 60.9355C273.845 -20.3111 142.182 -20.3111 60.9349 60.9355C-20.3116 142.182 -20.3116 273.845 60.9349 355.092C142.182 436.338 273.845 436.338 355.091 355.092C436.338 273.845 436.338 142.182 355.091 60.9355ZM292.725 221.024L229.933 362.304C221.519 381.326 194.507 381.326 186.093 362.304L123.302 221.024C121.394 216.695 120.476 212.099 120.548 207.514C120.615 203.261 121.533 199.018 123.302 195.003L186.093 53.723C194.507 34.7018 221.519 34.7018 229.933 53.723L292.725 195.003C294.494 199.018 295.412 203.261 295.478 207.514C295.55 212.099 294.632 216.695 292.725 221.024Z" fill="white"/>
</svg>
