<svg width="157" height="162" viewBox="0 0 157 162" fill="none" xmlns="http://www.w3.org/2000/svg">
<path d="M145.5 142.5V8.5L147 7V5H134V7L135.5 8.5V142.5L128 149.293V154.048C137.92 157.29 143.398 157.345 153 154.048V149.293L145.5 142.5Z" stroke="#423302" stroke-width="2"/>
<path d="M134.5 7L136 8.5H140H145L146.5 7V5.5H134.5V7Z" fill="#C99418"/>
<path d="M136 8.5V142.334H140V8.5H136Z" fill="#DDB737"/>
<path d="M145 142.334V8.5H140V142.334H145Z" fill="#C99418"/>
<path d="M2.03805 2.00934C2.14257 2.01837 2.26617 2.0335 2.40495 2.0539C2.68319 2.09482 3.05331 2.15984 3.51807 2.24826C4.44946 2.42544 5.79245 2.70238 7.60817 3.08257C15.8749 4.81352 20.752 6.50062 24.0092 7.62768C26.0885 8.34714 27.4187 8.80371 28.5475 8.93224C29.6045 9.05258 30.4958 8.88361 31.6848 8.24962C38.7441 3.86391 43.8851 2.72527 47.9188 3.21625C51.9389 3.70569 54.715 5.80502 57.0326 7.54519C58.6514 8.76069 59.9903 9.75364 61.4015 10.1249C62.082 10.3039 62.7764 10.3358 63.5318 10.1619C64.285 9.98846 65.129 9.60245 66.0967 8.90854C66.1149 8.89599 66.1327 8.88311 66.1509 8.87061C73.0293 4.13607 78.1087 2.85916 82.1534 3.34045C86.172 3.81863 89.0081 6.02393 91.3937 7.8647C93.0472 9.14057 94.437 10.2014 95.8891 10.6227C96.5904 10.8261 97.2978 10.8757 98.0566 10.7175C98.8053 10.5614 99.6385 10.1942 100.587 9.5191L100.669 9.46222C107.54 4.73718 112.609 3.47084 116.642 3.96334C120.649 4.45263 123.471 6.66912 125.844 8.51888C127.49 9.80175 128.873 10.8677 130.32 11.293C131.019 11.4983 131.724 11.5494 132.481 11.3925C133.246 11.2339 134.102 10.8546 135.079 10.1477L136.031 9.45748L136 61L135.115 59.8822C128.139 52.3664 123.247 49.2611 119.591 48.216C115.998 47.189 113.519 48.1267 111.166 49.0238C109.611 49.6167 108.001 50.2444 106.231 50.0496C104.429 49.8512 102.604 48.8277 100.482 46.482L100.479 46.4801C93.5074 38.9697 88.6149 35.8608 84.9565 34.8102C81.3597 33.7774 78.8752 34.7087 76.5189 35.599C74.9606 36.1878 73.3487 36.8106 71.5765 36.6115C69.7734 36.4088 67.9486 35.3839 65.8258 33.0372L65.1845 32.3565C58.6205 25.4519 53.8952 22.5545 50.294 21.5588C46.6308 20.546 44.0445 21.4734 41.6114 22.3542C39.9578 22.9529 38.2613 23.5825 36.4206 23.3289C34.5495 23.071 32.6782 21.9349 30.5197 19.3782C27.4196 15.7061 22.3471 12.4753 17.2616 9.86136C12.1864 7.25269 7.15396 5.28509 4.17511 4.12072C3.22811 3.75056 2.473 3.45612 1.99854 3.24943C1.77416 3.15168 1.56397 3.05281 1.43069 2.96311C1.39472 2.93889 1.34428 2.90229 1.29747 2.85408C1.26227 2.8178 1.16135 2.7074 1.15184 2.54216C1.13898 2.31858 1.29401 2.16163 1.43972 2.08613C1.55404 2.02693 1.66606 2.0118 1.71518 2.00649C1.82594 1.99454 1.94435 2.00125 2.03805 2.00934ZM128.097 51.8188C130.159 53.4342 132.441 55.5201 134.988 58.1851L134.881 11.4978C134.153 11.9149 133.45 12.1913 132.757 12.3349C131.76 12.5418 130.825 12.4703 129.939 12.2098C129.307 12.0241 128.697 11.7385 128.097 11.3925V51.8188ZM116.537 47.7676C117.579 47.7678 118.751 47.9829 120 48.34C122.014 48.9158 124.266 50.2974 126.941 52.2433V9.36392C126.31 8.92091 125.797 8.48425 125.172 7.9965L125.059 7.90993C122.661 6.04054 120.103 4.40526 116.537 3.95094V47.7676ZM115.381 4.84031C111.946 4.73554 107.489 6.02706 101.4 10.214C101.374 10.2322 101.348 10.2508 101.321 10.269L101.32 10.2681C100.282 11.0051 99.2984 11.4591 98.3354 11.6599C98.0394 11.7216 97.7482 11.7556 97.4628 11.7708V41.8952C98.6951 43.0642 99.9958 44.3812 101.371 45.862C101.381 45.873 101.393 45.8842 101.403 45.8951C103.451 48.1581 105.029 48.9375 106.381 49.0864C107.766 49.2387 109.063 48.7583 110.687 48.1393C110.692 48.1373 110.697 48.1354 110.702 48.1334C112.061 47.6155 113.576 47.0379 115.381 46.8556V4.84031ZM82.4345 34.3715C83.3292 34.415 84.4834 34.6878 85.5239 34.9866C88.4763 35.8345 91.8257 38.2094 96.3068 42.2646L96.4998 10.7592C96.2306 10.7146 95.9647 10.6527 95.7039 10.5704C94.0006 10.0324 92.4427 8.72387 90.8729 7.40539C90.85 7.38622 90.8272 7.36706 90.8044 7.34789C88.4807 5.3965 85.8156 3.956 82.4345 3.37696V34.3715ZM81.2785 4.23828C77.7826 4.03166 73.213 5.26551 66.8937 9.61296L66.8949 9.61391C65.8216 10.3907 64.814 10.8728 63.8377 11.0977C62.8525 11.3245 61.9316 11.2815 61.0561 11.0512C60.4576 10.8938 59.8801 10.6464 59.3141 10.342V25.4071H59.2611C61.4881 27.1674 63.9574 29.4611 66.7187 32.42C66.7259 32.4279 66.7342 32.4358 66.7413 32.4437C68.792 34.7123 70.3744 35.4968 71.73 35.6492C73.1175 35.805 74.4181 35.3281 76.0448 34.7135C76.0519 34.7108 76.059 34.7081 76.0661 34.7054C77.5571 34.142 79.2356 33.5078 81.2785 33.4013V4.23828ZM47.1759 21.1171C48.239 21.1177 49.2364 21.2681 50.4999 21.6174C52.663 22.2156 55.2794 23.7461 58.1581 25.8702V8.37891C57.5217 7.95376 57.1304 7.61953 56.4999 7.14604C54.1531 5.38393 51.547 3.65798 47.9188 3.21625C47.73 3.19327 47.3715 3.16043 47.1759 3.1455V21.1171ZM46.0199 4.0828C42.6232 4.11389 38.2455 5.3775 32.3497 9.04411C32.3348 9.0534 32.3195 9.06229 32.3046 9.07161L32.3023 9.06971C30.9294 9.80141 29.7682 10.051 28.3928 9.89454C28.2969 9.88362 28.1996 9.86954 28.1016 9.85472V15.5423C29.3608 16.5855 30.5016 17.6767 31.4635 18.816C33.5558 21.2943 35.1912 22.1761 36.608 22.3713C38.0551 22.5706 39.4283 22.0879 41.1542 21.463C41.1595 21.4612 41.1647 21.4593 41.17 21.4574C42.5806 20.9466 44.1551 20.3765 46.0199 20.2012V4.0828ZM1.15187 2.24782C-1.19617 2.49564 13.4999 7.5 17.6812 10.0785C21.8625 12.657 24.2029 13.8546 26.9455 15.9488V8.59234C25.9808 8.34185 24.818 7.9077 23.4998 7.45158C20.266 6.3326 15.6189 4.75994 7.43066 3.04541C6.9155 2.93754 3.49992 2 1.15187 2.24782Z" fill="#EF0000"/>
<path d="M128.097 51.8188C130.159 53.4342 132.441 55.5201 134.988 58.1851L134.881 11.4978C134.153 11.9149 133.45 12.1913 132.757 12.3349C131.76 12.5418 130.825 12.4703 129.939 12.2098C129.307 12.0241 128.697 11.7385 128.097 11.3925V51.8188Z" fill="#EF0000"/>
<path d="M115.381 4.84031C111.946 4.73554 107.489 6.02706 101.4 10.214C101.374 10.2322 101.348 10.2508 101.321 10.269L101.32 10.2681C100.282 11.0051 99.2984 11.4591 98.3354 11.6599C98.0394 11.7216 97.7482 11.7556 97.4628 11.7708V41.8952C98.6951 43.0642 99.9958 44.3812 101.371 45.862C101.381 45.873 101.393 45.8842 101.403 45.8951C103.451 48.1581 105.029 48.9375 106.381 49.0864C107.766 49.2387 109.063 48.7583 110.687 48.1393L110.702 48.1334C112.061 47.6155 113.576 47.0379 115.381 46.8556V4.84031Z" fill="#EF0000"/>
<path d="M81.2785 4.23828C77.7826 4.03166 73.213 5.26551 66.8937 9.61296L66.8949 9.61391C65.8216 10.3907 64.814 10.8728 63.8377 11.0977C62.8525 11.3245 61.9316 11.2815 61.0561 11.0512C60.4576 10.8938 59.8801 10.6464 59.3141 10.342V25.4071H59.2611C61.4881 27.1674 63.9574 29.4611 66.7187 32.42C66.7259 32.4279 66.7342 32.4358 66.7413 32.4437C68.792 34.7123 70.3744 35.4968 71.73 35.6492C73.1175 35.805 74.4181 35.3281 76.0448 34.7135L76.0661 34.7054C77.5571 34.142 79.2356 33.5078 81.2785 33.4013V4.23828Z" fill="#EF0000"/>
<path d="M46.0199 4.0828C42.6232 4.11389 38.2455 5.3775 32.3497 9.04411C32.3348 9.0534 32.3195 9.06229 32.3046 9.07161L32.3023 9.06971C30.9294 9.80141 29.7682 10.051 28.3928 9.89454C28.2969 9.88362 28.1996 9.86954 28.1016 9.85472V15.5423C29.3608 16.5855 30.5016 17.6767 31.4635 18.816C33.5558 21.2943 35.1912 22.1761 36.608 22.3713C38.0551 22.5706 39.4283 22.0879 41.1542 21.463L41.17 21.4574C42.5806 20.9466 44.1551 20.3765 46.0199 20.2012V4.0828Z" fill="#EF0000"/>
<path d="M116.537 47.7676C117.579 47.7678 118.751 47.9829 120 48.34C122.014 48.9158 124.266 50.2974 126.941 52.2433V9.36392C126.31 8.92091 125.797 8.48425 125.172 7.9965L125.059 7.90993C122.661 6.04054 120.103 4.40526 116.537 3.95094V47.7676Z" fill="#BA0404"/>
<path d="M1.15187 2.24782C-1.19617 2.49564 13.4999 7.5 17.6812 10.0785C21.8625 12.657 24.2029 13.8546 26.9455 15.9488V8.59234C25.9808 8.34185 24.818 7.9077 23.4998 7.45158C20.266 6.3326 15.6189 4.75994 7.43066 3.04541C6.9155 2.93754 3.49992 2 1.15187 2.24782Z" fill="#BA0404"/>
<path d="M47.1759 21.1171C48.239 21.1177 49.2364 21.2681 50.4999 21.6174C52.663 22.2156 55.2794 23.7461 58.1581 25.8702V8.37891C57.5217 7.95376 57.1304 7.61953 56.4999 7.14604C54.1531 5.38393 51.547 3.65798 47.9188 3.21625C47.73 3.19327 47.3715 3.16043 47.1759 3.1455V21.1171Z" fill="#BA0404"/>
<path d="M82.4345 34.3715C83.3292 34.415 84.4834 34.6878 85.5239 34.9866C88.4763 35.8345 91.8257 38.2094 96.3068 42.2646L96.4998 10.7592C96.2306 10.7146 95.9647 10.6527 95.7039 10.5704C94.0006 10.0324 92.4427 8.72387 90.8729 7.40539L90.8044 7.34789C88.4807 5.3965 85.8156 3.956 82.4345 3.37696V34.3715Z" fill="#BA0404"/>
<path d="M152.5 149.452C144.331 152.771 137.141 153.022 128.5 149.452V154.435C137.959 156.795 143.228 157.132 152.5 154.435V149.452Z" fill="#C99418"/>
<path d="M136 142.334L128.5 149.452C137.141 153.022 144.331 152.771 152.5 149.452L145 142.334H140H136Z" fill="#DDB737"/>
</svg>
