<svg width="157" height="162" viewBox="0 0 157 162" fill="none" xmlns="http://www.w3.org/2000/svg">
<ellipse cx="116.5" cy="153" rx="39.5" ry="9" fill="url(#paint0_linear_22_2)"/>
<path d="M145.5 142.5V8.5L147 7V5H134V7L135.5 8.5V142.5L128 149.293V154.048C137.92 157.29 143.398 157.345 153 154.048V149.293L145.5 142.5Z" stroke="#423302" stroke-width="2"/>
<path d="M134.5 7L136 8.5H140H145L146.5 7V5.5H134.5V7Z" fill="#C99418"/>
<path d="M136 8.5V142.334H140V8.5H136Z" fill="#DDB737"/>
<path d="M145 142.334V8.5H140V142.334H145Z" fill="#C99418"/>
<path d="M2.03817 2.00934C2.1427 2.01837 2.26629 2.0335 2.40507 2.0539C2.68331 2.09482 3.05343 2.15984 3.51819 2.24826C4.44958 2.42544 5.79258 2.70238 7.60829 3.08257C15.875 4.81352 20.7521 6.50062 24.0093 7.62768C26.0886 8.34714 27.4188 8.80371 28.5476 8.93224C29.6047 9.05258 30.4959 8.88361 31.6849 8.24962C38.7442 3.86391 43.8852 2.72527 47.9189 3.21625C51.939 3.70569 54.7151 5.80502 57.0327 7.54519C58.6515 8.76069 59.9904 9.75364 61.4016 10.1249C62.0821 10.3039 62.7765 10.3358 63.5319 10.1619C64.2851 9.98846 65.1291 9.60245 66.0968 8.90854C66.115 8.89599 66.1328 8.88311 66.151 8.87061C73.0295 4.13607 78.1088 2.85916 82.1535 3.34045C86.1721 3.81863 89.0082 6.02393 91.3938 7.8647C93.0473 9.14057 94.4371 10.2014 95.8892 10.6227C96.5905 10.8261 97.2979 10.8757 98.0567 10.7175C98.8055 10.5614 99.6386 10.1942 100.587 9.5191L100.669 9.46222C107.54 4.73718 112.609 3.47084 116.642 3.96334C120.649 4.45263 123.471 6.66912 125.844 8.51888C127.49 9.80175 128.873 10.8677 130.32 11.293C131.019 11.4983 131.724 11.5494 132.481 11.3925C133.246 11.2339 134.102 10.8546 135.079 10.1477L136.032 9.45748L136 61L135.115 59.8822C128.139 52.3664 123.247 49.2611 119.591 48.216C115.998 47.189 113.519 48.1267 111.166 49.0238C109.611 49.6167 108.001 50.2444 106.231 50.0496C104.429 49.8512 102.604 48.8277 100.482 46.482L100.479 46.4801C93.5075 38.9697 88.615 35.8608 84.9567 34.8102C81.3598 33.7774 78.8753 34.7087 76.5191 35.599C74.9608 36.1878 73.3489 36.8106 71.5766 36.6115C69.7735 36.4088 67.9488 35.3839 65.8259 33.0372L65.1846 32.3565C58.6206 25.4519 53.8953 22.5545 50.2941 21.5588C46.631 20.546 44.0446 21.4734 41.6116 22.3542C39.958 22.9529 38.2614 23.5825 36.4208 23.3289C34.5496 23.071 32.6784 21.9349 30.5198 19.3782C27.4197 15.7061 22.3472 12.4753 17.2617 9.86136C12.1866 7.25269 7.15408 5.28509 4.17523 4.12072C3.22823 3.75056 2.47312 3.45612 1.99866 3.24943C1.77428 3.15168 1.56409 3.05281 1.43081 2.96311C1.39484 2.93889 1.3444 2.90229 1.2976 2.85408C1.26239 2.8178 1.16147 2.7074 1.15196 2.54216C1.1391 2.31858 1.29413 2.16163 1.43984 2.08613C1.55417 2.02693 1.66619 2.0118 1.7153 2.00649C1.82606 1.99454 1.94448 2.00125 2.03817 2.00934ZM128.097 51.8188C130.159 53.4342 132.441 55.5201 134.988 58.1851L134.881 11.4978C134.153 11.9149 133.45 12.1913 132.758 12.3349C131.76 12.5418 130.825 12.4703 129.939 12.2098C129.307 12.0241 128.697 11.7385 128.097 11.3925V51.8188ZM116.537 47.7676C117.579 47.7678 118.751 47.9829 120 48.34C122.014 48.9158 124.266 50.2974 126.941 52.2433V9.36392C126.31 8.92091 125.798 8.48425 125.172 7.9965L125.059 7.90993C122.661 6.04054 120.103 4.40526 116.537 3.95094V47.7676ZM115.381 4.84031C111.946 4.73554 107.489 6.02706 101.401 10.214C101.374 10.2322 101.348 10.2508 101.322 10.269L101.32 10.2681C100.282 11.0051 99.2985 11.4591 98.3356 11.6599C98.0395 11.7216 97.7483 11.7556 97.4629 11.7708V41.8952C98.6952 43.0642 99.9959 44.3812 101.371 45.862C101.381 45.873 101.393 45.8842 101.403 45.8951C103.451 48.1581 105.03 48.9375 106.381 49.0864C107.766 49.2387 109.064 48.7583 110.687 48.1393C110.692 48.1373 110.697 48.1354 110.702 48.1334C112.061 47.6155 113.576 47.0379 115.381 46.8556V4.84031ZM82.4346 34.3715C83.3293 34.415 84.4835 34.6878 85.524 34.9866C88.4764 35.8345 91.8258 38.2094 96.3069 42.2646L96.5 10.7592C96.2307 10.7146 95.9648 10.6527 95.7041 10.5704C94.0007 10.0324 92.4428 8.72387 90.873 7.40539C90.8502 7.38622 90.8273 7.36706 90.8045 7.34789C88.4809 5.3965 85.8157 3.956 82.4346 3.37696V34.3715ZM81.2786 4.23828C77.7827 4.03166 73.2131 5.26551 66.8938 9.61296L66.895 9.61391C65.8218 10.3907 64.8142 10.8728 63.8379 11.0977C62.8526 11.3245 61.9317 11.2815 61.0562 11.0512C60.4577 10.8938 59.8802 10.6464 59.3143 10.342V25.4071H59.2612C61.4882 27.1674 63.9576 29.4611 66.7189 32.42C66.726 32.4279 66.7343 32.4358 66.7414 32.4437C68.7922 34.7123 70.3745 35.4968 71.7302 35.6492C73.1176 35.805 74.4182 35.3281 76.0449 34.7135C76.052 34.7108 76.0591 34.7081 76.0662 34.7054C77.5572 34.142 79.2357 33.5078 81.2786 33.4013V4.23828ZM47.176 21.1171C48.2391 21.1177 49.2365 21.2681 50.5 21.6174C52.6631 22.2156 55.2795 23.7461 58.1582 25.8702V8.37891C57.5218 7.95376 57.1306 7.61953 56.5 7.14604C54.1532 5.38393 51.5471 3.65798 47.9189 3.21625C47.7301 3.19327 47.3717 3.16043 47.176 3.1455V21.1171ZM46.02 4.0828C42.6233 4.11389 38.2457 5.3775 32.3499 9.04411C32.3349 9.0534 32.3196 9.06229 32.3047 9.07161L32.3024 9.06971C30.9296 9.80141 29.7683 10.051 28.3929 9.89454C28.297 9.88362 28.1997 9.86954 28.1017 9.85472V15.5423C29.361 16.5855 30.5018 17.6767 31.4636 18.816C33.5559 21.2943 35.1913 22.1761 36.6082 22.3713C38.0552 22.5706 39.4285 22.0879 41.1544 21.463C41.1596 21.4612 41.1648 21.4593 41.1701 21.4574C42.5808 20.9466 44.1553 20.3765 46.02 20.2012V4.0828ZM1.152 2.24782C-1.19604 2.49564 13.5 7.5 17.6813 10.0785C21.8626 12.657 24.2031 13.8546 26.9457 15.9488V8.59234C25.9809 8.34185 24.8181 7.9077 23.5 7.45158C20.2661 6.3326 15.6191 4.75994 7.43078 3.04541C6.91562 2.93754 3.50004 2 1.152 2.24782Z" fill="#EF0000"/>
<path d="M128.097 51.8188C130.159 53.4342 132.441 55.5201 134.988 58.1851L134.881 11.4978C134.153 11.9149 133.45 12.1913 132.758 12.3349C131.76 12.5418 130.825 12.4703 129.939 12.2098C129.307 12.0241 128.697 11.7385 128.097 11.3925V51.8188Z" fill="#EF0000"/>
<path d="M115.381 4.84031C111.946 4.73554 107.489 6.02706 101.401 10.214C101.374 10.2322 101.348 10.2508 101.322 10.269L101.32 10.2681C100.282 11.0051 99.2985 11.4591 98.3356 11.6599C98.0395 11.7216 97.7483 11.7556 97.4629 11.7708V41.8952C98.6952 43.0642 99.9959 44.3812 101.371 45.862C101.381 45.873 101.393 45.8842 101.403 45.8951C103.451 48.1581 105.03 48.9375 106.381 49.0864C107.766 49.2387 109.064 48.7583 110.687 48.1393L110.702 48.1334C112.061 47.6155 113.576 47.0379 115.381 46.8556V4.84031Z" fill="#EF0000"/>
<path d="M81.2786 4.23828C77.7827 4.03166 73.2131 5.26551 66.8938 9.61296L66.895 9.61391C65.8218 10.3907 64.8142 10.8728 63.8379 11.0977C62.8526 11.3245 61.9317 11.2815 61.0562 11.0512C60.4577 10.8938 59.8802 10.6464 59.3143 10.342V25.4071H59.2612C61.4882 27.1674 63.9576 29.4611 66.7189 32.42C66.726 32.4279 66.7343 32.4358 66.7414 32.4437C68.7922 34.7123 70.3745 35.4968 71.7302 35.6492C73.1176 35.805 74.4182 35.3281 76.0449 34.7135L76.0662 34.7054C77.5572 34.142 79.2357 33.5078 81.2786 33.4013V4.23828Z" fill="#EF0000"/>
<path d="M46.02 4.0828C42.6233 4.11389 38.2457 5.3775 32.3499 9.04411C32.3349 9.0534 32.3196 9.06229 32.3047 9.07161L32.3024 9.06971C30.9296 9.80141 29.7683 10.051 28.3929 9.89454C28.297 9.88362 28.1997 9.86954 28.1017 9.85472V15.5423C29.361 16.5855 30.5018 17.6767 31.4636 18.816C33.5559 21.2943 35.1913 22.1761 36.6082 22.3713C38.0552 22.5706 39.4285 22.0879 41.1544 21.463L41.1701 21.4574C42.5808 20.9466 44.1553 20.3765 46.02 20.2012V4.0828Z" fill="#EF0000"/>
<path d="M116.537 47.7676C117.579 47.7678 118.751 47.9829 120 48.34C122.014 48.9158 124.266 50.2974 126.941 52.2433V9.36392C126.31 8.92091 125.798 8.48425 125.172 7.9965L125.059 7.90993C122.661 6.04054 120.103 4.40526 116.537 3.95094V47.7676Z" fill="#BA0404"/>
<path d="M1.152 2.24782C-1.19604 2.49564 13.5 7.5 17.6813 10.0785C21.8626 12.657 24.2031 13.8546 26.9457 15.9488V8.59234C25.9809 8.34185 24.8181 7.9077 23.5 7.45158C20.2661 6.3326 15.6191 4.75994 7.43078 3.04541C6.91562 2.93754 3.50004 2 1.152 2.24782Z" fill="#BA0404"/>
<path d="M47.176 21.1171C48.2391 21.1177 49.2365 21.2681 50.5 21.6174C52.6631 22.2156 55.2795 23.7461 58.1582 25.8702V8.37891C57.5218 7.95376 57.1306 7.61953 56.5 7.14604C54.1532 5.38393 51.5471 3.65798 47.9189 3.21625C47.7301 3.19327 47.3717 3.16043 47.176 3.1455V21.1171Z" fill="#BA0404"/>
<path d="M82.4346 34.3715C83.3293 34.415 84.4835 34.6878 85.524 34.9866C88.4764 35.8345 91.8258 38.2094 96.3069 42.2646L96.5 10.7592C96.2307 10.7146 95.9648 10.6527 95.7041 10.5704C94.0007 10.0324 92.4428 8.72387 90.873 7.40539L90.8045 7.34789C88.4809 5.3965 85.8157 3.956 82.4346 3.37696V34.3715Z" fill="#BA0404"/>
<path d="M152.5 149.452C144.332 152.771 137.141 153.022 128.5 149.452V154.435C137.959 156.795 143.228 157.132 152.5 154.435V149.452Z" fill="#C99418"/>
<path d="M136 142.334L128.5 149.452C137.141 153.022 144.332 152.771 152.5 149.452L145 142.334H140H136Z" fill="#DDB737"/>
<defs>
<linearGradient id="paint0_linear_22_2" x1="77" y1="153" x2="156" y2="153" gradientUnits="userSpaceOnUse">
<stop stop-color="#9E9E9E" stop-opacity="0"/>
<stop offset="0.307692" stop-color="#4C4C4C" stop-opacity="0.37"/>
<stop offset="1" stop-color="#1C1C1C"/>
</linearGradient>
</defs>
</svg>
