<svg width="157" height="162" viewBox="0 0 157 162" fill="none" xmlns="http://www.w3.org/2000/svg">
<ellipse cx="116.5" cy="153" rx="39.5" ry="9" fill="url(#paint0_linear_22_6)"/>
<path d="M145.5 142.5V8.5L147 7V5H134V7L135.5 8.5V142.5L128 149.293V154.048C137.92 157.29 143.398 157.345 153 154.048V149.293L145.5 142.5Z" stroke="#423302" stroke-width="2"/>
<path d="M134.5 6.99977L136 8.49977H140H145L146.5 6.99977V5.49977H134.5V6.99977Z" fill="#C99418"/>
<path d="M136 8.49977V142.334H140V8.49977H136Z" fill="#DDB737"/>
<path d="M145 142.334V8.49977H140V142.334H145Z" fill="#C99418"/>
<path d="M2.50012 2.49932C2.60465 2.50835 2.86134 2.4796 3.00012 2.5C3.27836 2.54092 3.03536 2.41158 3.50012 2.5C4.43151 2.67719 5.79257 2.70215 7.60829 3.08234C15.875 4.81329 20.7521 6.50039 24.0093 7.62745C26.0886 8.34691 27.4188 8.80348 28.5476 8.93201C29.6047 9.05235 30.4959 8.88337 31.6849 8.24939C38.7442 3.86368 43.8852 2.72504 47.9189 3.21602C51.939 3.70546 54.7151 5.80479 57.0327 7.54496C58.6515 8.76046 59.9904 9.75341 61.4016 10.1247C62.0821 10.3037 62.7765 10.3356 63.5319 10.1617C64.2851 9.98823 65.1291 9.60222 66.0968 8.90831C66.115 8.89575 66.1328 8.88288 66.151 8.87038C73.0295 4.13584 78.1088 2.85893 82.1535 3.34022C86.1721 3.8184 89.0082 6.0237 91.3938 7.86447C93.0473 9.14034 94.4371 10.2012 95.8892 10.6224C96.5905 10.8259 97.2979 10.8754 98.0567 10.7172C98.8055 10.5611 99.6386 10.1939 100.587 9.51887L100.669 9.46199C107.54 4.73695 112.609 3.47061 116.642 3.96311C120.649 4.4524 123.471 6.66889 125.844 8.51864C127.49 9.80152 128.873 10.8674 130.32 11.2927C131.019 11.498 131.724 11.5492 132.481 11.3923C133.246 11.2336 134.102 10.8544 135.079 10.1475L136.032 9.45725L136 60.9998L135.115 59.882C128.139 52.3662 123.247 49.2609 119.591 48.2158C115.998 47.1887 113.519 48.1264 111.166 49.0236C109.611 49.6164 108.001 50.2442 106.231 50.0494C104.429 49.851 102.604 48.8275 100.482 46.4818L100.479 46.4799C93.5075 38.9695 88.615 35.8605 84.9567 34.8099C81.3598 33.7772 78.8753 34.7084 76.5191 35.5987C74.9608 36.1875 73.3489 36.8104 71.5766 36.6113C69.7735 36.4086 67.9487 35.3836 65.8259 33.037L65.1846 32.3563C58.6206 25.4517 53.8953 22.5543 50.2941 21.5586C46.631 20.5458 44.0446 21.4731 41.6116 22.354C39.958 22.9527 38.2614 23.5822 36.4208 23.3286C34.5496 23.0708 32.6784 21.9347 30.5198 19.378C27.4197 15.7059 22.3472 12.4751 17.2617 9.86113C12.1866 7.25246 7.15408 5.28486 4.17523 4.12049C3.22823 3.75033 2.87954 3.25187 2.40507 3.04518C2.18069 2.94743 2.32266 3.04539 2.03817 2.85385C1.75368 2.66231 2.133 2.92491 1.7153 2.7894C1.29759 2.6539 1.44935 2.66501 1.43984 2.49977C1.42698 2.27619 1.35441 2.57526 1.50012 2.49977C1.61445 2.44057 1.95101 2.5053 2.00012 2.5C2.11088 2.48805 2.40643 2.49123 2.50012 2.49932ZM128.097 51.8185C130.159 53.434 132.441 55.5199 134.988 58.1849L134.881 11.4975C134.153 11.9147 133.45 12.1911 132.758 12.3347C131.76 12.5415 130.825 12.4701 129.939 12.2095C129.307 12.0238 128.697 11.7382 128.097 11.3923V51.8185ZM116.537 47.7673C117.579 47.7676 118.751 47.9827 120 48.3398C122.014 48.9155 124.266 50.2972 126.941 52.2431V9.36369C126.31 8.92068 125.798 8.48401 125.172 7.99627L125.059 7.9097C122.661 6.04031 120.103 4.40503 116.537 3.95071V47.7673ZM115.381 4.84008C111.946 4.73531 107.489 6.02682 101.401 10.2138C101.374 10.232 101.348 10.2505 101.322 10.2688L101.32 10.2679C100.282 11.0049 99.2985 11.4588 98.3356 11.6596C98.0395 11.7214 97.7483 11.7554 97.4629 11.7706V41.895C98.6952 43.064 99.9959 44.3809 101.371 45.8617C101.381 45.8727 101.393 45.884 101.403 45.8949C103.451 48.1579 105.03 48.9373 106.381 49.0862C107.766 49.2385 109.064 48.7581 110.687 48.139C110.692 48.1371 110.697 48.1351 110.702 48.1332C112.061 47.6152 113.576 47.0376 115.381 46.8553V4.84008ZM82.4346 34.3713C83.3293 34.4148 84.4835 34.6875 85.524 34.9863C88.4764 35.8343 91.8258 38.2091 96.3069 42.2643L96.5 10.759C96.2307 10.7143 95.9648 10.6525 95.7041 10.5702C94.0007 10.0322 92.4428 8.72364 90.873 7.40515C90.8502 7.38599 90.8273 7.36683 90.8045 7.34766C88.4809 5.39627 85.8157 3.95577 82.4346 3.37672V34.3713ZM81.2786 4.23805C77.7827 4.03143 73.2131 5.26528 66.8938 9.61273L66.895 9.61368C65.8218 10.3904 64.8142 10.8726 63.8379 11.0974C62.8526 11.3243 61.9317 11.2813 61.0562 11.051C60.4577 10.8935 59.8802 10.6461 59.3143 10.3418V25.4068H59.2612C61.4882 27.1672 63.9576 29.4609 66.7188 32.4198C66.726 32.4277 66.7343 32.4356 66.7414 32.4435C68.7922 34.712 70.3745 35.4966 71.7302 35.649C73.1176 35.8048 74.4182 35.3279 76.0449 34.7132C76.052 34.7105 76.0591 34.7079 76.0662 34.7052C77.5572 34.1418 79.2357 33.5076 81.2786 33.4011V4.23805ZM47.176 21.1168C48.2391 21.1175 49.2365 21.2679 50.5 21.6172C52.6631 22.2154 55.2795 23.7458 58.1582 25.87V8.37868C57.5218 7.95353 57.1306 7.6193 56.5 7.14581C54.1532 5.3837 51.5471 3.65775 47.9189 3.21602C47.7301 3.19304 47.3717 3.16019 47.176 3.14527V21.1168ZM46.02 4.08257C42.6233 4.11366 38.2457 5.37727 32.3499 9.04388C32.3349 9.05316 32.3196 9.06206 32.3047 9.07138L32.3024 9.06948C30.9296 9.80118 29.7683 10.0508 28.3929 9.89431C28.297 9.88339 28.1997 9.86931 28.1017 9.85449V15.542C29.361 16.5852 30.5018 17.6764 31.4636 18.8158C33.5559 21.294 35.1913 22.1758 36.6082 22.3711C38.0552 22.5703 39.4285 22.0877 41.1544 21.4628C41.1596 21.4609 41.1648 21.459 41.1701 21.4571C42.5808 20.9464 44.1553 20.3763 46.02 20.2009V4.08257ZM1.152 2.24759C-1.19604 2.49541 13.5 7.49977 17.6813 10.0783C21.8626 12.6568 24.2031 13.8544 26.9457 15.9485V8.5921C25.9809 8.34162 24.8182 7.90746 23.5 7.45135C20.2661 6.33237 15.6191 4.75971 7.43078 3.04518C6.91562 2.93731 3.50004 1.99977 1.152 2.24759Z" fill="#63A83A"/>
<path d="M128.097 51.8185C130.159 53.434 132.441 55.5199 134.988 58.1849L134.881 11.4975C134.153 11.9147 133.45 12.1911 132.758 12.3347C131.76 12.5415 130.825 12.4701 129.939 12.2095C129.307 12.0238 128.697 11.7382 128.097 11.3923V51.8185Z" fill="#63A83A"/>
<path d="M115.381 4.84008C111.946 4.73531 107.489 6.02682 101.401 10.2138C101.374 10.232 101.348 10.2505 101.322 10.2688L101.32 10.2679C100.282 11.0049 99.2985 11.4588 98.3356 11.6596C98.0395 11.7214 97.7483 11.7554 97.4629 11.7706V41.895C98.6952 43.064 99.9959 44.3809 101.371 45.8617C101.381 45.8727 101.393 45.884 101.403 45.8949C103.451 48.1579 105.03 48.9373 106.381 49.0862C107.766 49.2385 109.064 48.7581 110.687 48.139L110.702 48.1332C112.061 47.6152 113.576 47.0376 115.381 46.8553V4.84008Z" fill="#63A83A"/>
<path d="M81.2786 4.23805C77.7827 4.03143 73.2131 5.26528 66.8938 9.61273L66.895 9.61368C65.8218 10.3904 64.8142 10.8726 63.8379 11.0974C62.8526 11.3243 61.9317 11.2813 61.0562 11.051C60.4577 10.8935 59.8802 10.6461 59.3143 10.3418V25.4068H59.2612C61.4882 27.1672 63.9576 29.4609 66.7188 32.4198C66.726 32.4277 66.7343 32.4356 66.7414 32.4435C68.7922 34.712 70.3745 35.4966 71.7302 35.649C73.1176 35.8048 74.4182 35.3279 76.0449 34.7132L76.0662 34.7052C77.5572 34.1418 79.2357 33.5076 81.2786 33.4011V4.23805Z" fill="#63A83A"/>
<path d="M46.02 4.08257C42.6233 4.11366 38.2457 5.37727 32.3499 9.04388C32.3349 9.05316 32.3196 9.06206 32.3047 9.07138L32.3024 9.06948C30.9296 9.80118 29.7683 10.0508 28.3929 9.89431C28.297 9.88339 28.1997 9.86931 28.1017 9.85449V15.542C29.361 16.5852 30.5018 17.6764 31.4636 18.8158C33.5559 21.294 35.1913 22.1758 36.6082 22.3711C38.0552 22.5703 39.4285 22.0877 41.1544 21.4628L41.1701 21.4571C42.5808 20.9464 44.1553 20.3763 46.02 20.2009V4.08257Z" fill="#63A83A"/>
<path d="M116.537 47.7673C117.579 47.7676 118.751 47.9827 120 48.3398C122.014 48.9155 124.266 50.2972 126.941 52.2431V9.36369C126.31 8.92068 125.798 8.48401 125.172 7.99627L125.059 7.9097C122.661 6.04031 120.103 4.40503 116.537 3.95071V47.7673Z" fill="#356519"/>
<path d="M1.152 2.24759C-1.19604 2.49541 13.5 7.49977 17.6813 10.0783C21.8626 12.6568 24.2031 13.8544 26.9457 15.9485V8.5921C25.9809 8.34162 24.8182 7.90746 23.5 7.45135C20.2661 6.33237 15.6191 4.75971 7.43078 3.04518C6.91562 2.93731 3.50004 1.99977 1.152 2.24759Z" fill="#356519"/>
<path d="M47.176 21.1168C48.2391 21.1175 49.2365 21.2679 50.5 21.6172C52.6631 22.2154 55.2795 23.7458 58.1582 25.87V8.37868C57.5218 7.95353 57.1306 7.6193 56.5 7.14581C54.1532 5.3837 51.5471 3.65775 47.9189 3.21602C47.7301 3.19304 47.3717 3.16019 47.176 3.14527V21.1168Z" fill="#356519"/>
<path d="M82.4346 34.3713C83.3293 34.4148 84.4835 34.6875 85.524 34.9863C88.4764 35.8343 91.8258 38.2091 96.3069 42.2643L96.5 10.759C96.2307 10.7143 95.9648 10.6525 95.7041 10.5702C94.0007 10.0322 92.4428 8.72364 90.873 7.40515L90.8045 7.34766C88.4809 5.39627 85.8157 3.95577 82.4346 3.37672V34.3713Z" fill="#356519"/>
<path d="M152.5 149.452C144.332 152.771 137.141 153.022 128.5 149.452V154.435C137.959 156.795 143.228 157.132 152.5 154.435V149.452Z" fill="#C99418"/>
<path d="M136 142.334L128.5 149.452C137.141 153.022 144.332 152.771 152.5 149.452L145 142.334H140H136Z" fill="#DDB737"/>
<defs>
<linearGradient id="paint0_linear_22_6" x1="77" y1="153" x2="156" y2="153" gradientUnits="userSpaceOnUse">
<stop stop-color="#9E9E9E" stop-opacity="0"/>
<stop offset="0.307692" stop-color="#4C4C4C" stop-opacity="0.37"/>
<stop offset="1" stop-color="#1C1C1C"/>
</linearGradient>
</defs>
</svg>
