<svg width="156" height="159" viewBox="0 0 156 159" fill="none" xmlns="http://www.w3.org/2000/svg">
<path d="M145.5 142.5V8.5L147 7V5H134V7L135.5 8.5V142.5L128 149.293V154.048C137.92 157.29 143.398 157.345 153 154.048V149.293L145.5 142.5Z" stroke="#423302" stroke-width="2"/>
<path d="M134.5 7L136 8.5H140H145L146.5 7V5.5H134.5V7Z" fill="#C99418"/>
<path d="M136 8.5V142.334H140V8.5H136Z" fill="#DDB737"/>
<path d="M145 142.334V8.5H140V142.334H145Z" fill="#C99418"/>
<path d="M2.0382 2.00934C2.14273 2.01837 2.26632 2.0335 2.4051 2.0539C2.68334 2.09482 3.05346 2.15984 3.51822 2.24826C4.44961 2.42544 5.7926 2.70238 7.60832 3.08257C15.875 4.81352 20.7521 6.50062 24.0094 7.62768C26.0886 8.34714 27.4189 8.80371 28.5476 8.93224C29.6047 9.05258 30.496 8.88361 31.6849 8.24962C38.7442 3.86391 43.8853 2.72527 47.9189 3.21625C51.939 3.70569 54.7152 5.80502 57.0327 7.54519C58.6515 8.76069 59.9904 9.75364 61.4017 10.1249C62.0822 10.3039 62.7766 10.3358 63.5319 10.1619C64.2851 9.98846 65.1291 9.60245 66.0969 8.90854C66.1151 8.89599 66.1329 8.88311 66.151 8.87061C73.0295 4.13607 78.1089 2.85916 82.1536 3.34045C86.1721 3.81863 89.0082 6.02393 91.3938 7.8647C93.0474 9.14057 94.4371 10.2014 95.8892 10.6227C96.5905 10.8261 97.2979 10.8757 98.0568 10.7175C98.8055 10.5614 99.6386 10.1942 100.587 9.5191L100.669 9.46222C107.54 4.73718 112.609 3.47084 116.642 3.96334C120.649 4.45263 123.471 6.66912 125.844 8.51888C127.49 9.80175 128.874 10.8677 130.32 11.293C131.019 11.4983 131.724 11.5494 132.481 11.3925C133.246 11.2339 134.102 10.8546 135.079 10.1477L136.032 9.45748L136 61L135.115 59.8822C128.139 52.3664 123.247 49.2611 119.591 48.216C115.998 47.189 113.519 48.1267 111.166 49.0238C109.611 49.6167 108.001 50.2444 106.231 50.0496C104.429 49.8512 102.605 48.8277 100.482 46.482L100.479 46.4801C93.5076 38.9697 88.615 35.8608 84.9567 34.8102C81.3599 33.7774 78.8753 34.7087 76.5191 35.599C74.9608 36.1878 73.3489 36.8106 71.5767 36.6115C69.7735 36.4088 67.9488 35.3839 65.8259 33.0372L65.1847 32.3565C58.6206 25.4519 53.8953 22.5545 50.2942 21.5588C46.631 20.546 44.0446 21.4734 41.6116 22.3542C39.958 22.9529 38.2614 23.5825 36.4208 23.3289C34.5496 23.071 32.6784 21.9349 30.5199 19.3782C27.4198 15.7061 22.3473 12.4753 17.2618 9.86136C12.1866 7.25269 7.15411 5.28509 4.17526 4.12072C3.22826 3.75056 2.47315 3.45612 1.99869 3.24943C1.77431 3.15168 1.56412 3.05281 1.43084 2.96311C1.39487 2.93889 1.34443 2.90229 1.29763 2.85408C1.26242 2.8178 1.1615 2.7074 1.15199 2.54216C1.13913 2.31858 1.29416 2.16163 1.43987 2.08613C1.5542 2.02693 1.66622 2.0118 1.71533 2.00649C1.82609 1.99454 1.94451 2.00125 2.0382 2.00934ZM128.097 51.8188C130.16 53.4342 132.441 55.5201 134.988 58.1851L134.881 11.4978C134.153 11.9149 133.45 12.1913 132.758 12.3349C131.76 12.5418 130.825 12.4703 129.939 12.2098C129.307 12.0241 128.697 11.7385 128.097 11.3925V51.8188ZM116.537 46.7968C117.579 46.797 118.714 46.9402 119.964 47.2974C121.978 47.8731 124.266 48.9987 126.941 50.9446V10.6483C126.31 10.2053 125.685 9.71837 125.059 9.23062L125.058 9.22994C122.66 7.36055 120.103 5.38565 116.537 4.93133V46.7968ZM115.381 4.84031C111.946 4.73554 107.489 6.02705 101.401 10.214C101.374 10.2322 101.348 10.2508 101.322 10.269L101.32 10.2681C100.282 11.0051 99.2985 11.4591 98.3356 11.6599C98.0395 11.7216 97.7484 11.7556 97.4629 11.7708V41.8952C98.6953 43.0642 99.9959 44.3812 101.371 45.862C101.381 45.873 101.393 45.8842 101.403 45.8951C103.451 48.1581 105.03 48.9375 106.381 49.0864C107.766 49.2387 109.064 48.7583 110.687 48.1393C110.692 48.1373 110.697 48.1354 110.702 48.1334C112.061 47.6155 113.576 47.0379 115.381 46.8556V4.84031ZM82.4347 33.3994C83.3293 33.4429 84.2911 33.5936 85.3315 33.8924C88.2839 34.7404 91.8259 36.7677 96.3069 40.8229V11.7139C96.0377 11.6729 95.7718 11.6161 95.511 11.5404C93.8077 11.0461 92.2497 9.84382 90.6799 8.63238C90.6571 8.61477 90.6343 8.59716 90.6115 8.57955C88.2878 6.7866 85.8157 4.89546 82.4347 4.36343V33.3994ZM81.2787 4.23828C77.7828 4.03166 73.2131 5.26551 66.8939 9.61296L66.895 9.61391C65.8218 10.3907 64.8142 10.8728 63.8379 11.0977C62.8526 11.3245 61.9317 11.2815 61.0562 11.0512C60.4577 10.8938 59.8802 10.6464 59.3143 10.342V25.4071H59.2612C61.4882 27.1674 63.9576 29.4611 66.7189 32.42C66.726 32.4279 66.7343 32.4358 66.7415 32.4437C68.7922 34.7123 70.3746 35.4968 71.7302 35.6492C73.1177 35.805 74.4182 35.3281 76.045 34.7135C76.0521 34.7108 76.0592 34.7081 76.0663 34.7054C77.5573 34.142 79.2358 33.5078 81.2787 33.4013V4.23828ZM47.1761 20.1462C48.2391 20.1468 49.3931 20.287 50.6565 20.6363C52.8197 21.2345 55.2795 22.4382 58.1583 24.5623V9.63856C57.5218 9.21342 56.8922 8.74207 56.2617 8.26858C53.9149 6.50647 51.3812 4.61934 47.7529 4.1776C47.5642 4.15463 47.3717 4.13565 47.1761 4.12072V20.1462ZM46.02 4.0828C42.6234 4.11389 38.2457 5.3775 32.3499 9.04411C32.3349 9.05339 32.3197 9.06229 32.3047 9.07161L32.3025 9.06971C30.9296 9.80141 29.7684 10.051 28.393 9.89454C28.297 9.88362 28.1997 9.86954 28.1017 9.85472V15.5423C29.361 16.5855 30.5018 17.6767 31.4637 18.816C33.5559 21.2943 35.1913 22.1761 36.6082 22.3713C38.0552 22.5706 39.4285 22.0879 41.1544 21.463C41.1596 21.4612 41.1648 21.4593 41.1701 21.4574C42.5808 20.9466 44.1553 20.3765 46.02 20.2012V4.0828ZM5.898 3.72821C8.9366 4.92482 13.3816 6.7294 17.8646 9.03368C21.0139 10.6524 24.2031 12.5275 26.9457 14.6217V9.61012C25.981 9.35964 24.8873 8.98163 23.5691 8.52551C20.3352 7.40653 15.5166 5.73949 7.32835 4.02496C6.81319 3.91709 6.33668 3.81914 5.898 3.72821Z" fill="#EF0000"/>
<path d="M128.097 51.8188C130.16 53.4342 132.441 55.5201 134.988 58.1851L134.881 11.4978C134.153 11.9149 133.45 12.1913 132.758 12.3349C131.76 12.5418 130.825 12.4703 129.939 12.2098C129.307 12.0241 128.697 11.7385 128.097 11.3925V51.8188Z" fill="#EF0000"/>
<path d="M115.381 4.84031C111.946 4.73554 107.489 6.02705 101.401 10.214C101.374 10.2322 101.348 10.2508 101.322 10.269L101.32 10.2681C100.282 11.0051 99.2985 11.4591 98.3356 11.6599C98.0395 11.7216 97.7484 11.7556 97.4629 11.7708V41.8952C98.6953 43.0642 99.9959 44.3812 101.371 45.862C101.381 45.873 101.393 45.8842 101.403 45.8951C103.451 48.1581 105.03 48.9375 106.381 49.0864C107.766 49.2387 109.064 48.7583 110.687 48.1393L110.702 48.1334C112.061 47.6155 113.576 47.0379 115.381 46.8556V4.84031Z" fill="#EF0000"/>
<path d="M81.2787 4.23828C77.7828 4.03166 73.2131 5.26551 66.8939 9.61296L66.895 9.61391C65.8218 10.3907 64.8142 10.8728 63.8379 11.0977C62.8526 11.3245 61.9317 11.2815 61.0562 11.0512C60.4577 10.8938 59.8802 10.6464 59.3143 10.342V25.4071H59.2612C61.4882 27.1674 63.9576 29.4611 66.7189 32.42C66.726 32.4279 66.7343 32.4358 66.7415 32.4437C68.7922 34.7123 70.3746 35.4968 71.7302 35.6492C73.1177 35.805 74.4182 35.3281 76.045 34.7135L76.0663 34.7054C77.5573 34.142 79.2358 33.5078 81.2787 33.4013V4.23828Z" fill="#EF0000"/>
<path d="M46.02 4.0828C42.6234 4.11389 38.2457 5.3775 32.3499 9.04411C32.3349 9.05339 32.3197 9.06229 32.3047 9.07161L32.3025 9.06971C30.9296 9.80141 29.7684 10.051 28.393 9.89454C28.297 9.88362 28.1997 9.86954 28.1017 9.85472V15.5423C29.361 16.5855 30.5018 17.6767 31.4637 18.816C33.5559 21.2943 35.1913 22.1761 36.6082 22.3713C38.0552 22.5706 39.4285 22.0879 41.1544 21.463L41.1701 21.4574C42.5808 20.9466 44.1553 20.3765 46.02 20.2012V4.0828Z" fill="#EF0000"/>
<path d="M116.537 46.7968C117.579 46.797 118.714 46.9402 119.964 47.2974C121.978 47.8731 124.266 48.9987 126.941 50.9446V10.6483C126.31 10.2053 125.685 9.71837 125.059 9.23062L125.058 9.22994C122.66 7.36055 120.103 5.38565 116.537 4.93133V46.7968Z" fill="#BA0404"/>
<path d="M5.898 3.72821C8.9366 4.92482 13.3816 6.7294 17.8646 9.03368C21.0139 10.6524 24.2031 12.5275 26.9457 14.6217V9.61012C25.981 9.35964 24.8873 8.98163 23.5691 8.52551C20.3352 7.40653 15.5166 5.73949 7.32835 4.02496C6.81319 3.91709 6.33668 3.81914 5.898 3.72821Z" fill="#BA0404"/>
<path d="M47.1761 20.1462C48.2391 20.1468 49.3931 20.287 50.6565 20.6363C52.8197 21.2345 55.2795 22.4382 58.1583 24.5623V9.63856C57.5218 9.21342 56.8922 8.74207 56.2617 8.26858C53.9149 6.50647 51.3812 4.61934 47.7529 4.1776C47.5642 4.15463 47.3717 4.13565 47.1761 4.12072V20.1462Z" fill="#BA0404"/>
<path d="M82.4347 33.3994C83.3293 33.4429 84.2911 33.5936 85.3315 33.8924C88.2839 34.7404 91.8259 36.7677 96.3069 40.8229V11.7139C96.0377 11.6729 95.7718 11.6161 95.511 11.5404C93.8077 11.0461 92.2497 9.84382 90.6799 8.63238L90.6115 8.57955C88.2878 6.7866 85.8157 4.89546 82.4347 4.36343V33.3994Z" fill="#BA0404"/>
<path d="M152.5 149.452C144.332 152.771 137.141 153.022 128.5 149.452V154.435C137.96 156.795 143.228 157.132 152.5 154.435V149.452Z" fill="#C99418"/>
<path d="M136 142.334L128.5 149.452C137.141 153.022 144.332 152.771 152.5 149.452L145 142.334H140H136Z" fill="#DDB737"/>
</svg>
