<svg width="134" height="295" viewBox="0 0 134 295" fill="none" xmlns="http://www.w3.org/2000/svg">
<path d="M66.1357 9.42356C67.4731 5.79628 65.6168 1.77159 61.9895 0.434168C58.3622 -0.903251 54.3375 0.953055 53.0001 4.58034L59.5679 7.00195L66.1357 9.42356ZM53.0001 290.424C54.3375 294.051 58.3622 295.907 61.9895 294.57C65.6168 293.232 67.4731 289.208 66.1357 285.58L59.5679 288.002L53.0001 290.424ZM133.136 9.42356C134.473 5.79628 132.617 1.77159 128.989 0.434168C125.362 -0.903251 121.338 0.953055 120 4.58034L126.568 7.00195L133.136 9.42356ZM120 290.424C121.338 294.051 125.362 295.907 128.989 294.57C132.617 293.232 134.473 289.208 133.136 285.58L126.568 288.002L120 290.424ZM6.56787 150.746L13.1357 153.168L14.0105 150.795L7.44269 148.374L0.874903 145.952L8.67844e-05 148.325L6.56787 150.746ZM7.44269 148.374L14.0105 150.795L66.1357 9.42356L59.5679 7.00195L53.0001 4.58034L0.874902 145.952L7.44269 148.374ZM6.56787 146.002L8.29697e-05 148.424C0.293731 149.22 0.585551 150.011 0.875595 150.797L7.44269 148.374L14.0098 145.95C13.7202 145.165 13.4288 144.376 13.1357 143.58L6.56787 146.002ZM7.44269 148.374L0.875594 150.797C10.9609 178.126 18.8981 199.217 26.8596 220.38C34.8206 241.541 42.8065 262.777 53.0001 290.424L59.5679 288.002L66.1357 285.58C55.9249 257.887 47.9251 236.615 39.963 215.45C32.0015 194.287 24.0783 173.233 14.0098 145.95L7.44269 148.374ZM73.5679 150.746L80.1357 153.168L81.0105 150.795L74.4427 148.374L67.8749 145.952L67.0001 148.325L73.5679 150.746ZM74.4427 148.374L81.0105 150.795L133.136 9.42356L126.568 7.00195L120 4.58034L67.8749 145.952L74.4427 148.374ZM73.5679 146.002L67.0001 148.424C67.2937 149.22 67.5856 150.011 67.8756 150.797L74.4427 148.374L81.0098 145.95C80.7202 145.165 80.4288 144.376 80.1357 143.58L73.5679 146.002ZM74.4427 148.374L67.8756 150.797C77.9609 178.126 85.8981 199.217 93.8596 220.38C101.821 241.541 109.806 262.777 120 290.424L126.568 288.002L133.136 285.58C122.925 257.887 114.925 236.615 106.963 215.45C99.0015 194.287 91.0783 173.233 81.0098 145.95L74.4427 148.374Z" fill="white" fill-opacity="0.62"/>
</svg>
